<mxfile host="app.diagrams.net" modified="2024-01-13T06:27:05.523Z" agent="Mozilla/5.0 (Windows NT 10.0; Win64; x64) AppleWebKit/537.36 (KHTML, like Gecko) Chrome/120.0.0.0 Safari/537.36" etag="iyL11rdklSN2WgUjKvRF" version="22.1.18" type="device">
  <diagram id="j9IK_Nx5uPVzp3F27csh" name="Page-1">
    <mxGraphModel dx="4756" dy="2196" grid="0" gridSize="10" guides="1" tooltips="1" connect="1" arrows="1" fold="1" page="1" pageScale="1" pageWidth="3300" pageHeight="2339" background="#FFFFFF" math="0" shadow="1">
      <root>
        <mxCell id="0" />
        <mxCell id="1" parent="0" />
        <mxCell id="uqIJKNml7ff7KI8Rcqo2-258" style="edgeStyle=orthogonalEdgeStyle;rounded=0;orthogonalLoop=1;jettySize=auto;html=1;entryX=0.5;entryY=0;entryDx=0;entryDy=0;labelBackgroundColor=none;fontColor=default;" parent="1" source="d3-_-CHtjb4w5oyOQTUF-3" target="uqIJKNml7ff7KI8Rcqo2-248" edge="1">
          <mxGeometry relative="1" as="geometry" />
        </mxCell>
        <mxCell id="d3-_-CHtjb4w5oyOQTUF-3" value="CUSTOMER" style="rounded=0;whiteSpace=wrap;html=1;labelBackgroundColor=none;" parent="1" vertex="1">
          <mxGeometry x="2550" y="660" width="80" height="30" as="geometry" />
        </mxCell>
        <mxCell id="d3-_-CHtjb4w5oyOQTUF-31" value="&lt;span style=&quot;font-weight: 400;&quot;&gt;&lt;u&gt;Customer_ID&lt;/u&gt;&lt;br&gt;&lt;/span&gt;" style="ellipse;whiteSpace=wrap;html=1;fontStyle=1;rounded=0;labelBackgroundColor=none;" parent="1" vertex="1">
          <mxGeometry x="2340" y="470" width="110" height="40" as="geometry" />
        </mxCell>
        <mxCell id="uqIJKNml7ff7KI8Rcqo2-244" value="" style="edgeStyle=orthogonalEdgeStyle;rounded=0;orthogonalLoop=1;jettySize=auto;html=1;labelBackgroundColor=none;fontColor=default;" parent="1" source="d3-_-CHtjb4w5oyOQTUF-32" target="d3-_-CHtjb4w5oyOQTUF-33" edge="1">
          <mxGeometry relative="1" as="geometry" />
        </mxCell>
        <mxCell id="d3-_-CHtjb4w5oyOQTUF-32" value="&lt;span style=&quot;font-weight: 400;&quot;&gt;username&lt;br&gt;&lt;/span&gt;" style="ellipse;whiteSpace=wrap;html=1;fontStyle=1;rounded=0;labelBackgroundColor=none;" parent="1" vertex="1">
          <mxGeometry x="2450" y="360" width="110" height="40" as="geometry" />
        </mxCell>
        <mxCell id="d3-_-CHtjb4w5oyOQTUF-33" value="&lt;span style=&quot;font-weight: 400;&quot;&gt;password&lt;br&gt;&lt;/span&gt;" style="ellipse;whiteSpace=wrap;html=1;fontStyle=1;rounded=0;labelBackgroundColor=none;" parent="1" vertex="1">
          <mxGeometry x="2610" y="290" width="110" height="40" as="geometry" />
        </mxCell>
        <mxCell id="d3-_-CHtjb4w5oyOQTUF-35" value="&lt;span style=&quot;font-weight: 400;&quot;&gt;email&lt;br&gt;&lt;/span&gt;" style="ellipse;whiteSpace=wrap;html=1;fontStyle=1;rounded=0;labelBackgroundColor=none;" parent="1" vertex="1">
          <mxGeometry x="2930" y="420" width="110" height="40" as="geometry" />
        </mxCell>
        <mxCell id="d3-_-CHtjb4w5oyOQTUF-36" value="&lt;span style=&quot;font-weight: 400;&quot;&gt;phone_no&lt;br&gt;&lt;/span&gt;" style="ellipse;whiteSpace=wrap;html=1;fontStyle=1;rounded=0;labelBackgroundColor=none;" parent="1" vertex="1">
          <mxGeometry x="3040" y="510" width="110" height="40" as="geometry" />
        </mxCell>
        <mxCell id="uqIJKNml7ff7KI8Rcqo2-36" value="&lt;span style=&quot;font-weight: 400;&quot;&gt;address&lt;br&gt;&lt;/span&gt;" style="ellipse;whiteSpace=wrap;html=1;fontStyle=1;rounded=0;labelBackgroundColor=none;" parent="1" vertex="1">
          <mxGeometry x="3060" y="600" width="110" height="40" as="geometry" />
        </mxCell>
        <mxCell id="uqIJKNml7ff7KI8Rcqo2-37" value="&lt;span style=&quot;font-weight: 400;&quot;&gt;PINCODE&lt;br&gt;&lt;/span&gt;" style="ellipse;whiteSpace=wrap;html=1;fontStyle=1;rounded=0;labelBackgroundColor=none;" parent="1" vertex="1">
          <mxGeometry x="2990" y="695" width="110" height="40" as="geometry" />
        </mxCell>
        <mxCell id="uqIJKNml7ff7KI8Rcqo2-39" value="&lt;span style=&quot;font-weight: 400;&quot;&gt;img_id&lt;br&gt;&lt;/span&gt;" style="ellipse;whiteSpace=wrap;html=1;fontStyle=1;rounded=0;labelBackgroundColor=none;" parent="1" vertex="1">
          <mxGeometry x="2860" y="790" width="110" height="40" as="geometry" />
        </mxCell>
        <mxCell id="uqIJKNml7ff7KI8Rcqo2-42" value="" style="ellipse;whiteSpace=wrap;html=1;rounded=0;labelBackgroundColor=none;" parent="1" vertex="1">
          <mxGeometry x="2795" y="320" width="140" height="60" as="geometry" />
        </mxCell>
        <mxCell id="uqIJKNml7ff7KI8Rcqo2-43" value="&lt;span style=&quot;font-weight: 400;&quot;&gt;fullname&lt;br&gt;&lt;/span&gt;" style="ellipse;whiteSpace=wrap;html=1;fontStyle=1;rounded=0;labelBackgroundColor=none;" parent="1" vertex="1">
          <mxGeometry x="2810" y="330" width="110" height="40" as="geometry" />
        </mxCell>
        <mxCell id="uqIJKNml7ff7KI8Rcqo2-46" value="" style="endArrow=none;html=1;rounded=0;entryX=1;entryY=1;entryDx=0;entryDy=0;exitX=0.25;exitY=0;exitDx=0;exitDy=0;labelBackgroundColor=none;fontColor=default;" parent="1" source="d3-_-CHtjb4w5oyOQTUF-3" target="d3-_-CHtjb4w5oyOQTUF-31" edge="1">
          <mxGeometry width="50" height="50" relative="1" as="geometry">
            <mxPoint x="2440" y="855" as="sourcePoint" />
            <mxPoint x="2490" y="805" as="targetPoint" />
          </mxGeometry>
        </mxCell>
        <mxCell id="uqIJKNml7ff7KI8Rcqo2-47" value="" style="endArrow=none;html=1;rounded=0;entryX=0.655;entryY=0.973;entryDx=0;entryDy=0;entryPerimeter=0;exitX=0.25;exitY=0;exitDx=0;exitDy=0;labelBackgroundColor=none;fontColor=default;" parent="1" source="d3-_-CHtjb4w5oyOQTUF-3" target="d3-_-CHtjb4w5oyOQTUF-32" edge="1">
          <mxGeometry width="50" height="50" relative="1" as="geometry">
            <mxPoint x="2590" y="655" as="sourcePoint" />
            <mxPoint x="2500" y="815" as="targetPoint" />
          </mxGeometry>
        </mxCell>
        <mxCell id="uqIJKNml7ff7KI8Rcqo2-48" value="" style="endArrow=none;html=1;rounded=0;entryX=0.5;entryY=1;entryDx=0;entryDy=0;exitX=0.5;exitY=0;exitDx=0;exitDy=0;labelBackgroundColor=none;fontColor=default;" parent="1" source="d3-_-CHtjb4w5oyOQTUF-3" target="d3-_-CHtjb4w5oyOQTUF-33" edge="1">
          <mxGeometry width="50" height="50" relative="1" as="geometry">
            <mxPoint x="2460" y="875" as="sourcePoint" />
            <mxPoint x="2510" y="825" as="targetPoint" />
          </mxGeometry>
        </mxCell>
        <mxCell id="uqIJKNml7ff7KI8Rcqo2-49" value="" style="endArrow=none;html=1;rounded=0;entryX=0;entryY=1;entryDx=0;entryDy=0;exitX=0.5;exitY=0;exitDx=0;exitDy=0;labelBackgroundColor=none;fontColor=default;" parent="1" source="d3-_-CHtjb4w5oyOQTUF-3" target="uqIJKNml7ff7KI8Rcqo2-42" edge="1">
          <mxGeometry width="50" height="50" relative="1" as="geometry">
            <mxPoint x="2620" y="665" as="sourcePoint" />
            <mxPoint x="2520" y="835" as="targetPoint" />
          </mxGeometry>
        </mxCell>
        <mxCell id="uqIJKNml7ff7KI8Rcqo2-50" value="" style="endArrow=none;html=1;rounded=0;entryX=0;entryY=0.5;entryDx=0;entryDy=0;exitX=0.75;exitY=0;exitDx=0;exitDy=0;labelBackgroundColor=none;fontColor=default;" parent="1" source="d3-_-CHtjb4w5oyOQTUF-3" target="d3-_-CHtjb4w5oyOQTUF-35" edge="1">
          <mxGeometry width="50" height="50" relative="1" as="geometry">
            <mxPoint x="2480" y="895" as="sourcePoint" />
            <mxPoint x="2530" y="845" as="targetPoint" />
          </mxGeometry>
        </mxCell>
        <mxCell id="uqIJKNml7ff7KI8Rcqo2-51" value="" style="endArrow=none;html=1;rounded=0;entryX=0;entryY=0.5;entryDx=0;entryDy=0;exitX=0.75;exitY=0;exitDx=0;exitDy=0;labelBackgroundColor=none;fontColor=default;" parent="1" source="d3-_-CHtjb4w5oyOQTUF-3" target="d3-_-CHtjb4w5oyOQTUF-36" edge="1">
          <mxGeometry width="50" height="50" relative="1" as="geometry">
            <mxPoint x="2490" y="905" as="sourcePoint" />
            <mxPoint x="2540" y="855" as="targetPoint" />
          </mxGeometry>
        </mxCell>
        <mxCell id="uqIJKNml7ff7KI8Rcqo2-52" value="" style="endArrow=none;html=1;rounded=0;entryX=0;entryY=0.5;entryDx=0;entryDy=0;exitX=1;exitY=0.5;exitDx=0;exitDy=0;labelBackgroundColor=none;fontColor=default;" parent="1" source="d3-_-CHtjb4w5oyOQTUF-3" target="uqIJKNml7ff7KI8Rcqo2-36" edge="1">
          <mxGeometry width="50" height="50" relative="1" as="geometry">
            <mxPoint x="2650" y="675" as="sourcePoint" />
            <mxPoint x="2550" y="865" as="targetPoint" />
          </mxGeometry>
        </mxCell>
        <mxCell id="uqIJKNml7ff7KI8Rcqo2-53" value="" style="endArrow=none;html=1;rounded=0;entryX=0;entryY=0.5;entryDx=0;entryDy=0;exitX=1;exitY=0.5;exitDx=0;exitDy=0;labelBackgroundColor=none;fontColor=default;" parent="1" source="d3-_-CHtjb4w5oyOQTUF-3" target="uqIJKNml7ff7KI8Rcqo2-37" edge="1">
          <mxGeometry width="50" height="50" relative="1" as="geometry">
            <mxPoint x="2690" y="680" as="sourcePoint" />
            <mxPoint x="2560" y="875" as="targetPoint" />
          </mxGeometry>
        </mxCell>
        <mxCell id="uqIJKNml7ff7KI8Rcqo2-54" value="" style="endArrow=none;html=1;rounded=0;entryX=0;entryY=0.5;entryDx=0;entryDy=0;exitX=1;exitY=0.75;exitDx=0;exitDy=0;labelBackgroundColor=none;fontColor=default;" parent="1" source="d3-_-CHtjb4w5oyOQTUF-3" target="uqIJKNml7ff7KI8Rcqo2-39" edge="1">
          <mxGeometry width="50" height="50" relative="1" as="geometry">
            <mxPoint x="2680" y="695" as="sourcePoint" />
            <mxPoint x="2570" y="885" as="targetPoint" />
          </mxGeometry>
        </mxCell>
        <mxCell id="uqIJKNml7ff7KI8Rcqo2-78" value="SERVICE_REQUEST" style="rounded=0;whiteSpace=wrap;html=1;labelBackgroundColor=none;" parent="1" vertex="1">
          <mxGeometry x="2525" y="1920" width="130" height="30" as="geometry" />
        </mxCell>
        <mxCell id="uqIJKNml7ff7KI8Rcqo2-79" value="&lt;span style=&quot;font-weight: 400;&quot;&gt;sr_id&lt;br&gt;&lt;/span&gt;" style="ellipse;whiteSpace=wrap;html=1;fontStyle=1;rounded=0;labelBackgroundColor=none;" parent="1" vertex="1">
          <mxGeometry x="2330" y="2050" width="110" height="40" as="geometry" />
        </mxCell>
        <mxCell id="uqIJKNml7ff7KI8Rcqo2-80" value="&lt;span style=&quot;font-weight: 400;&quot;&gt;Cust_id&lt;br&gt;&lt;/span&gt;" style="ellipse;whiteSpace=wrap;html=1;fontStyle=1;rounded=0;labelBackgroundColor=none;" parent="1" vertex="1">
          <mxGeometry x="2520" y="2120" width="110" height="40" as="geometry" />
        </mxCell>
        <mxCell id="uqIJKNml7ff7KI8Rcqo2-81" value="&lt;span style=&quot;font-weight: 400;&quot;&gt;Skills_Req&lt;br&gt;&lt;/span&gt;" style="ellipse;whiteSpace=wrap;html=1;fontStyle=1;rounded=0;labelBackgroundColor=none;" parent="1" vertex="1">
          <mxGeometry x="2900" y="1920" width="110" height="40" as="geometry" />
        </mxCell>
        <mxCell id="uqIJKNml7ff7KI8Rcqo2-82" value="&lt;span style=&quot;font-weight: 400;&quot;&gt;PINCODE&lt;br&gt;&lt;/span&gt;" style="ellipse;whiteSpace=wrap;html=1;fontStyle=1;rounded=0;labelBackgroundColor=none;" parent="1" vertex="1">
          <mxGeometry x="2770" y="2060" width="110" height="40" as="geometry" />
        </mxCell>
        <mxCell id="uqIJKNml7ff7KI8Rcqo2-84" value="" style="endArrow=none;html=1;rounded=0;exitX=0.636;exitY=0;exitDx=0;exitDy=0;exitPerimeter=0;entryX=0.25;entryY=1;entryDx=0;entryDy=0;labelBackgroundColor=none;fontColor=default;" parent="1" source="uqIJKNml7ff7KI8Rcqo2-79" target="uqIJKNml7ff7KI8Rcqo2-78" edge="1">
          <mxGeometry width="50" height="50" relative="1" as="geometry">
            <mxPoint x="2680" y="1740" as="sourcePoint" />
            <mxPoint x="2730" y="1690" as="targetPoint" />
          </mxGeometry>
        </mxCell>
        <mxCell id="uqIJKNml7ff7KI8Rcqo2-90" value="" style="endArrow=none;html=1;rounded=0;exitX=0.5;exitY=0;exitDx=0;exitDy=0;entryX=0.5;entryY=1;entryDx=0;entryDy=0;labelBackgroundColor=none;fontColor=default;" parent="1" source="uqIJKNml7ff7KI8Rcqo2-80" target="uqIJKNml7ff7KI8Rcqo2-78" edge="1">
          <mxGeometry width="50" height="50" relative="1" as="geometry">
            <mxPoint x="2680" y="1740" as="sourcePoint" />
            <mxPoint x="2730" y="1970" as="targetPoint" />
          </mxGeometry>
        </mxCell>
        <mxCell id="uqIJKNml7ff7KI8Rcqo2-91" value="" style="endArrow=none;html=1;rounded=0;exitX=0.365;exitY=0.02;exitDx=0;exitDy=0;exitPerimeter=0;entryX=0.75;entryY=1;entryDx=0;entryDy=0;labelBackgroundColor=none;fontColor=default;" parent="1" source="uqIJKNml7ff7KI8Rcqo2-82" target="uqIJKNml7ff7KI8Rcqo2-78" edge="1">
          <mxGeometry width="50" height="50" relative="1" as="geometry">
            <mxPoint x="2690" y="1750" as="sourcePoint" />
            <mxPoint x="2740" y="1700" as="targetPoint" />
          </mxGeometry>
        </mxCell>
        <mxCell id="uqIJKNml7ff7KI8Rcqo2-92" value="" style="endArrow=none;html=1;rounded=0;exitX=0;exitY=0.5;exitDx=0;exitDy=0;entryX=1;entryY=0.5;entryDx=0;entryDy=0;labelBackgroundColor=none;fontColor=default;" parent="1" source="uqIJKNml7ff7KI8Rcqo2-81" target="uqIJKNml7ff7KI8Rcqo2-78" edge="1">
          <mxGeometry width="50" height="50" relative="1" as="geometry">
            <mxPoint x="2700" y="1760" as="sourcePoint" />
            <mxPoint x="2750" y="1710" as="targetPoint" />
          </mxGeometry>
        </mxCell>
        <mxCell id="uqIJKNml7ff7KI8Rcqo2-103" value="IMAGES" style="rounded=0;whiteSpace=wrap;html=1;labelBackgroundColor=none;" parent="1" vertex="1">
          <mxGeometry x="1695" y="1910" width="70" height="30" as="geometry" />
        </mxCell>
        <mxCell id="uqIJKNml7ff7KI8Rcqo2-104" value="&lt;span style=&quot;font-weight: 400;&quot;&gt;img_id&lt;br&gt;&lt;/span&gt;" style="ellipse;whiteSpace=wrap;html=1;fontStyle=1;rounded=0;labelBackgroundColor=none;" parent="1" vertex="1">
          <mxGeometry x="1505" y="2020" width="110" height="40" as="geometry" />
        </mxCell>
        <mxCell id="uqIJKNml7ff7KI8Rcqo2-105" value="&lt;span style=&quot;font-weight: 400;&quot;&gt;file_path&lt;br&gt;&lt;/span&gt;" style="ellipse;whiteSpace=wrap;html=1;fontStyle=1;rounded=0;labelBackgroundColor=none;" parent="1" vertex="1">
          <mxGeometry x="1675" y="2110" width="110" height="40" as="geometry" />
        </mxCell>
        <mxCell id="uqIJKNml7ff7KI8Rcqo2-106" value="&lt;span style=&quot;font-weight: 400;&quot;&gt;person_id&lt;br&gt;&lt;/span&gt;" style="ellipse;whiteSpace=wrap;html=1;fontStyle=1;rounded=0;labelBackgroundColor=none;" parent="1" vertex="1">
          <mxGeometry x="1845" y="2020" width="110" height="40" as="geometry" />
        </mxCell>
        <mxCell id="uqIJKNml7ff7KI8Rcqo2-109" value="" style="endArrow=none;html=1;rounded=0;entryX=0.25;entryY=1;entryDx=0;entryDy=0;exitX=1;exitY=0;exitDx=0;exitDy=0;labelBackgroundColor=none;fontColor=default;" parent="1" source="uqIJKNml7ff7KI8Rcqo2-104" target="uqIJKNml7ff7KI8Rcqo2-103" edge="1">
          <mxGeometry width="50" height="50" relative="1" as="geometry">
            <mxPoint x="1585" y="2000" as="sourcePoint" />
            <mxPoint x="1475" y="1770" as="targetPoint" />
          </mxGeometry>
        </mxCell>
        <mxCell id="uqIJKNml7ff7KI8Rcqo2-110" value="" style="endArrow=none;html=1;rounded=0;exitX=0.5;exitY=0;exitDx=0;exitDy=0;entryX=0.5;entryY=1;entryDx=0;entryDy=0;labelBackgroundColor=none;fontColor=default;" parent="1" source="uqIJKNml7ff7KI8Rcqo2-105" target="uqIJKNml7ff7KI8Rcqo2-103" edge="1">
          <mxGeometry width="50" height="50" relative="1" as="geometry">
            <mxPoint x="1435" y="1830" as="sourcePoint" />
            <mxPoint x="1485" y="1780" as="targetPoint" />
          </mxGeometry>
        </mxCell>
        <mxCell id="uqIJKNml7ff7KI8Rcqo2-111" value="" style="endArrow=none;html=1;rounded=0;exitX=0;exitY=0;exitDx=0;exitDy=0;entryX=0.75;entryY=1;entryDx=0;entryDy=0;labelBackgroundColor=none;fontColor=default;" parent="1" source="uqIJKNml7ff7KI8Rcqo2-106" target="uqIJKNml7ff7KI8Rcqo2-103" edge="1">
          <mxGeometry width="50" height="50" relative="1" as="geometry">
            <mxPoint x="1445" y="1840" as="sourcePoint" />
            <mxPoint x="1495" y="1790" as="targetPoint" />
          </mxGeometry>
        </mxCell>
        <mxCell id="uqIJKNml7ff7KI8Rcqo2-256" style="edgeStyle=orthogonalEdgeStyle;rounded=0;orthogonalLoop=1;jettySize=auto;html=1;labelBackgroundColor=none;fontColor=default;" parent="1" source="uqIJKNml7ff7KI8Rcqo2-176" target="uqIJKNml7ff7KI8Rcqo2-245" edge="1">
          <mxGeometry relative="1" as="geometry" />
        </mxCell>
        <mxCell id="uqIJKNml7ff7KI8Rcqo2-176" value="EMPLOYEE" style="rounded=0;whiteSpace=wrap;html=1;labelBackgroundColor=none;" parent="1" vertex="1">
          <mxGeometry x="650" y="660" width="80" height="30" as="geometry" />
        </mxCell>
        <mxCell id="uqIJKNml7ff7KI8Rcqo2-177" value="&lt;u&gt;EMPLOYEE_ID&lt;/u&gt;" style="ellipse;whiteSpace=wrap;html=1;rounded=0;labelBackgroundColor=none;" parent="1" vertex="1">
          <mxGeometry x="470" y="920" width="110" height="40" as="geometry" />
        </mxCell>
        <mxCell id="uqIJKNml7ff7KI8Rcqo2-178" value="username" style="ellipse;whiteSpace=wrap;html=1;rounded=0;labelBackgroundColor=none;" parent="1" vertex="1">
          <mxGeometry x="336" y="893" width="110" height="40" as="geometry" />
        </mxCell>
        <mxCell id="uqIJKNml7ff7KI8Rcqo2-179" value="password" style="ellipse;whiteSpace=wrap;html=1;rounded=0;labelBackgroundColor=none;" parent="1" vertex="1">
          <mxGeometry x="210" y="836" width="110" height="40" as="geometry" />
        </mxCell>
        <mxCell id="uqIJKNml7ff7KI8Rcqo2-180" value="email" style="ellipse;whiteSpace=wrap;html=1;rounded=0;labelBackgroundColor=none;" parent="1" vertex="1">
          <mxGeometry x="120" y="680" width="110" height="40" as="geometry" />
        </mxCell>
        <mxCell id="uqIJKNml7ff7KI8Rcqo2-181" value="Phone_no" style="ellipse;whiteSpace=wrap;html=1;rounded=0;labelBackgroundColor=none;" parent="1" vertex="1">
          <mxGeometry x="150" y="600" width="110" height="40" as="geometry" />
        </mxCell>
        <mxCell id="uqIJKNml7ff7KI8Rcqo2-182" value="&lt;span style=&quot;font-weight: normal;&quot;&gt;Address&lt;/span&gt;" style="ellipse;whiteSpace=wrap;html=1;fontStyle=1;rounded=0;labelBackgroundColor=none;" parent="1" vertex="1">
          <mxGeometry x="189" y="500" width="110" height="40" as="geometry" />
        </mxCell>
        <mxCell id="uqIJKNml7ff7KI8Rcqo2-183" value="&lt;span style=&quot;font-weight: normal;&quot;&gt;PINCODE&lt;/span&gt;" style="ellipse;whiteSpace=wrap;html=1;fontStyle=1;rounded=0;labelBackgroundColor=none;" parent="1" vertex="1">
          <mxGeometry x="248" y="400" width="110" height="40" as="geometry" />
        </mxCell>
        <mxCell id="uqIJKNml7ff7KI8Rcqo2-184" value="&lt;span style=&quot;font-weight: normal;&quot;&gt;Mediator_Key&lt;/span&gt;" style="ellipse;whiteSpace=wrap;html=1;fontStyle=1;rounded=0;labelBackgroundColor=none;" parent="1" vertex="1">
          <mxGeometry x="866" y="332" width="110" height="40" as="geometry" />
        </mxCell>
        <mxCell id="uqIJKNml7ff7KI8Rcqo2-185" value="&lt;span style=&quot;font-weight: normal;&quot;&gt;Skills&lt;/span&gt;" style="ellipse;whiteSpace=wrap;html=1;fontStyle=1;rounded=0;labelBackgroundColor=none;" parent="1" vertex="1">
          <mxGeometry x="1014" y="489" width="110" height="40" as="geometry" />
        </mxCell>
        <mxCell id="uqIJKNml7ff7KI8Rcqo2-186" value="&lt;span style=&quot;font-weight: normal;&quot;&gt;Description&lt;/span&gt;" style="ellipse;whiteSpace=wrap;html=1;fontStyle=1;rounded=0;labelBackgroundColor=none;" parent="1" vertex="1">
          <mxGeometry x="490" y="240" width="110" height="40" as="geometry" />
        </mxCell>
        <mxCell id="uqIJKNml7ff7KI8Rcqo2-187" value="&lt;span style=&quot;font-weight: normal;&quot;&gt;Image_ID&lt;/span&gt;" style="ellipse;whiteSpace=wrap;html=1;fontStyle=1;rounded=0;labelBackgroundColor=none;" parent="1" vertex="1">
          <mxGeometry x="358" y="310" width="110" height="40" as="geometry" />
        </mxCell>
        <mxCell id="uqIJKNml7ff7KI8Rcqo2-188" value="&lt;span style=&quot;font-weight: normal;&quot;&gt;Experience&lt;/span&gt;" style="ellipse;whiteSpace=wrap;html=1;fontStyle=1;rounded=0;labelBackgroundColor=none;" parent="1" vertex="1">
          <mxGeometry x="955" y="409" width="110" height="40" as="geometry" />
        </mxCell>
        <mxCell id="uqIJKNml7ff7KI8Rcqo2-189" value="&lt;span style=&quot;font-weight: normal;&quot;&gt;isEngaged&lt;/span&gt;" style="ellipse;whiteSpace=wrap;html=1;fontStyle=1;rounded=0;labelBackgroundColor=none;" parent="1" vertex="1">
          <mxGeometry x="650" y="213" width="110" height="40" as="geometry" />
        </mxCell>
        <mxCell id="uqIJKNml7ff7KI8Rcqo2-190" value="&lt;span style=&quot;font-weight: normal;&quot;&gt;Jobs_Done&lt;/span&gt;" style="ellipse;whiteSpace=wrap;html=1;fontStyle=1;rounded=0;labelBackgroundColor=none;" parent="1" vertex="1">
          <mxGeometry x="774" y="256" width="110" height="40" as="geometry" />
        </mxCell>
        <mxCell id="uqIJKNml7ff7KI8Rcqo2-191" value="" style="endArrow=none;html=1;rounded=0;exitX=0.5;exitY=0;exitDx=0;exitDy=0;entryX=0;entryY=0.75;entryDx=0;entryDy=0;labelBackgroundColor=none;fontColor=default;" parent="1" source="uqIJKNml7ff7KI8Rcqo2-178" target="uqIJKNml7ff7KI8Rcqo2-176" edge="1">
          <mxGeometry width="50" height="50" relative="1" as="geometry">
            <mxPoint x="650" y="610" as="sourcePoint" />
            <mxPoint x="700" y="560" as="targetPoint" />
          </mxGeometry>
        </mxCell>
        <mxCell id="uqIJKNml7ff7KI8Rcqo2-192" value="" style="endArrow=none;html=1;rounded=0;exitX=0.5;exitY=0;exitDx=0;exitDy=0;entryX=0;entryY=0.75;entryDx=0;entryDy=0;labelBackgroundColor=none;fontColor=default;" parent="1" source="uqIJKNml7ff7KI8Rcqo2-177" target="uqIJKNml7ff7KI8Rcqo2-176" edge="1">
          <mxGeometry width="50" height="50" relative="1" as="geometry">
            <mxPoint x="660" y="620" as="sourcePoint" />
            <mxPoint x="710" y="570" as="targetPoint" />
          </mxGeometry>
        </mxCell>
        <mxCell id="uqIJKNml7ff7KI8Rcqo2-193" value="" style="endArrow=none;html=1;rounded=0;exitX=1;exitY=0.5;exitDx=0;exitDy=0;entryX=0;entryY=0.5;entryDx=0;entryDy=0;labelBackgroundColor=none;fontColor=default;" parent="1" source="uqIJKNml7ff7KI8Rcqo2-179" target="uqIJKNml7ff7KI8Rcqo2-176" edge="1">
          <mxGeometry width="50" height="50" relative="1" as="geometry">
            <mxPoint x="670" y="630" as="sourcePoint" />
            <mxPoint x="720" y="580" as="targetPoint" />
          </mxGeometry>
        </mxCell>
        <mxCell id="uqIJKNml7ff7KI8Rcqo2-194" value="" style="endArrow=none;html=1;rounded=0;exitX=1;exitY=0.5;exitDx=0;exitDy=0;entryX=0;entryY=0.5;entryDx=0;entryDy=0;labelBackgroundColor=none;fontColor=default;" parent="1" target="uqIJKNml7ff7KI8Rcqo2-176" edge="1">
          <mxGeometry width="50" height="50" relative="1" as="geometry">
            <mxPoint x="260.00000000000114" y="770" as="sourcePoint" />
            <mxPoint x="730" y="590" as="targetPoint" />
          </mxGeometry>
        </mxCell>
        <mxCell id="uqIJKNml7ff7KI8Rcqo2-195" value="" style="endArrow=none;html=1;rounded=0;exitX=1;exitY=0.5;exitDx=0;exitDy=0;entryX=0;entryY=0.25;entryDx=0;entryDy=0;labelBackgroundColor=none;fontColor=default;" parent="1" source="uqIJKNml7ff7KI8Rcqo2-180" target="uqIJKNml7ff7KI8Rcqo2-176" edge="1">
          <mxGeometry width="50" height="50" relative="1" as="geometry">
            <mxPoint x="690" y="650" as="sourcePoint" />
            <mxPoint x="740" y="600" as="targetPoint" />
          </mxGeometry>
        </mxCell>
        <mxCell id="uqIJKNml7ff7KI8Rcqo2-196" value="" style="endArrow=none;html=1;rounded=0;exitX=1;exitY=0.5;exitDx=0;exitDy=0;entryX=0;entryY=0.25;entryDx=0;entryDy=0;labelBackgroundColor=none;fontColor=default;" parent="1" source="uqIJKNml7ff7KI8Rcqo2-181" target="uqIJKNml7ff7KI8Rcqo2-176" edge="1">
          <mxGeometry width="50" height="50" relative="1" as="geometry">
            <mxPoint x="700" y="660" as="sourcePoint" />
            <mxPoint x="750" y="610" as="targetPoint" />
          </mxGeometry>
        </mxCell>
        <mxCell id="uqIJKNml7ff7KI8Rcqo2-197" value="" style="endArrow=none;html=1;rounded=0;entryX=0;entryY=0;entryDx=0;entryDy=0;exitX=1;exitY=1;exitDx=0;exitDy=0;labelBackgroundColor=none;fontColor=default;" parent="1" source="uqIJKNml7ff7KI8Rcqo2-182" target="uqIJKNml7ff7KI8Rcqo2-176" edge="1">
          <mxGeometry width="50" height="50" relative="1" as="geometry">
            <mxPoint x="380" y="470" as="sourcePoint" />
            <mxPoint x="760" y="620" as="targetPoint" />
          </mxGeometry>
        </mxCell>
        <mxCell id="uqIJKNml7ff7KI8Rcqo2-198" value="" style="endArrow=none;html=1;rounded=0;exitX=0.664;exitY=0.963;exitDx=0;exitDy=0;exitPerimeter=0;labelBackgroundColor=none;fontColor=default;" parent="1" source="uqIJKNml7ff7KI8Rcqo2-183" edge="1">
          <mxGeometry width="50" height="50" relative="1" as="geometry">
            <mxPoint x="430" y="380" as="sourcePoint" />
            <mxPoint x="650" y="660" as="targetPoint" />
          </mxGeometry>
        </mxCell>
        <mxCell id="uqIJKNml7ff7KI8Rcqo2-199" value="" style="endArrow=none;html=1;rounded=0;entryX=0.25;entryY=0;entryDx=0;entryDy=0;exitX=0.7;exitY=0.963;exitDx=0;exitDy=0;exitPerimeter=0;labelBackgroundColor=none;fontColor=default;" parent="1" source="uqIJKNml7ff7KI8Rcqo2-187" target="uqIJKNml7ff7KI8Rcqo2-176" edge="1">
          <mxGeometry width="50" height="50" relative="1" as="geometry">
            <mxPoint x="540" y="320" as="sourcePoint" />
            <mxPoint x="780" y="640" as="targetPoint" />
          </mxGeometry>
        </mxCell>
        <mxCell id="uqIJKNml7ff7KI8Rcqo2-200" value="" style="endArrow=none;html=1;rounded=0;exitX=0.5;exitY=1;exitDx=0;exitDy=0;entryX=0.25;entryY=0;entryDx=0;entryDy=0;labelBackgroundColor=none;fontColor=default;" parent="1" source="uqIJKNml7ff7KI8Rcqo2-186" target="uqIJKNml7ff7KI8Rcqo2-176" edge="1">
          <mxGeometry width="50" height="50" relative="1" as="geometry">
            <mxPoint x="740" y="700" as="sourcePoint" />
            <mxPoint x="790" y="650" as="targetPoint" />
          </mxGeometry>
        </mxCell>
        <mxCell id="uqIJKNml7ff7KI8Rcqo2-201" value="" style="endArrow=none;html=1;rounded=0;exitX=0.5;exitY=1;exitDx=0;exitDy=0;labelBackgroundColor=none;fontColor=default;" parent="1" source="uqIJKNml7ff7KI8Rcqo2-189" edge="1">
          <mxGeometry width="50" height="50" relative="1" as="geometry">
            <mxPoint x="760" y="310" as="sourcePoint" />
            <mxPoint x="665" y="660" as="targetPoint" />
          </mxGeometry>
        </mxCell>
        <mxCell id="uqIJKNml7ff7KI8Rcqo2-202" value="" style="endArrow=none;html=1;rounded=0;exitX=0;exitY=1;exitDx=0;exitDy=0;entryX=0.5;entryY=0;entryDx=0;entryDy=0;labelBackgroundColor=none;fontColor=default;" parent="1" source="uqIJKNml7ff7KI8Rcqo2-190" target="uqIJKNml7ff7KI8Rcqo2-176" edge="1">
          <mxGeometry width="50" height="50" relative="1" as="geometry">
            <mxPoint x="760" y="720" as="sourcePoint" />
            <mxPoint x="810" y="670" as="targetPoint" />
          </mxGeometry>
        </mxCell>
        <mxCell id="uqIJKNml7ff7KI8Rcqo2-203" value="" style="endArrow=none;html=1;rounded=0;exitX=0;exitY=0.5;exitDx=0;exitDy=0;labelBackgroundColor=none;fontColor=default;" parent="1" source="uqIJKNml7ff7KI8Rcqo2-184" edge="1">
          <mxGeometry width="50" height="50" relative="1" as="geometry">
            <mxPoint x="770" y="730" as="sourcePoint" />
            <mxPoint x="690" y="660" as="targetPoint" />
          </mxGeometry>
        </mxCell>
        <mxCell id="uqIJKNml7ff7KI8Rcqo2-204" value="" style="endArrow=none;html=1;rounded=0;entryX=0;entryY=0.5;entryDx=0;entryDy=0;exitX=0.75;exitY=0;exitDx=0;exitDy=0;labelBackgroundColor=none;fontColor=default;" parent="1" source="uqIJKNml7ff7KI8Rcqo2-176" target="uqIJKNml7ff7KI8Rcqo2-188" edge="1">
          <mxGeometry width="50" height="50" relative="1" as="geometry">
            <mxPoint x="780" y="740" as="sourcePoint" />
            <mxPoint x="830" y="690" as="targetPoint" />
          </mxGeometry>
        </mxCell>
        <mxCell id="uqIJKNml7ff7KI8Rcqo2-205" value="" style="endArrow=none;html=1;rounded=0;entryX=0;entryY=0.5;entryDx=0;entryDy=0;exitX=0.75;exitY=0;exitDx=0;exitDy=0;labelBackgroundColor=none;fontColor=default;" parent="1" source="uqIJKNml7ff7KI8Rcqo2-176" target="uqIJKNml7ff7KI8Rcqo2-185" edge="1">
          <mxGeometry width="50" height="50" relative="1" as="geometry">
            <mxPoint x="790" y="750" as="sourcePoint" />
            <mxPoint x="840" y="700" as="targetPoint" />
          </mxGeometry>
        </mxCell>
        <mxCell id="uqIJKNml7ff7KI8Rcqo2-206" value="" style="ellipse;whiteSpace=wrap;html=1;rounded=0;labelBackgroundColor=none;" parent="1" vertex="1">
          <mxGeometry x="120" y="750" width="140" height="60" as="geometry" />
        </mxCell>
        <mxCell id="uqIJKNml7ff7KI8Rcqo2-207" value="fullname" style="ellipse;whiteSpace=wrap;html=1;rounded=0;labelBackgroundColor=none;" parent="1" vertex="1">
          <mxGeometry x="135" y="760" width="110" height="40" as="geometry" />
        </mxCell>
        <mxCell id="uqIJKNml7ff7KI8Rcqo2-226" value="MEDIATOR" style="rounded=0;whiteSpace=wrap;html=1;labelBackgroundColor=none;" parent="1" vertex="1">
          <mxGeometry x="654" y="1920" width="80" height="30" as="geometry" />
        </mxCell>
        <mxCell id="uqIJKNml7ff7KI8Rcqo2-227" value="&lt;u&gt;MEDIATOR_ID&lt;/u&gt;" style="ellipse;whiteSpace=wrap;html=1;rounded=0;labelBackgroundColor=none;" parent="1" vertex="1">
          <mxGeometry x="409" y="1770" width="110" height="40" as="geometry" />
        </mxCell>
        <mxCell id="uqIJKNml7ff7KI8Rcqo2-228" value="username" style="ellipse;whiteSpace=wrap;html=1;rounded=0;labelBackgroundColor=none;" parent="1" vertex="1">
          <mxGeometry x="264" y="1850" width="110" height="40" as="geometry" />
        </mxCell>
        <mxCell id="uqIJKNml7ff7KI8Rcqo2-229" value="password" style="ellipse;whiteSpace=wrap;html=1;rounded=0;labelBackgroundColor=none;" parent="1" vertex="1">
          <mxGeometry x="210" y="1950" width="110" height="40" as="geometry" />
        </mxCell>
        <mxCell id="uqIJKNml7ff7KI8Rcqo2-230" value="email" style="ellipse;whiteSpace=wrap;html=1;rounded=0;labelBackgroundColor=none;" parent="1" vertex="1">
          <mxGeometry x="454" y="2110" width="110" height="40" as="geometry" />
        </mxCell>
        <mxCell id="uqIJKNml7ff7KI8Rcqo2-231" value="Phone_no" style="ellipse;whiteSpace=wrap;html=1;rounded=0;labelBackgroundColor=none;" parent="1" vertex="1">
          <mxGeometry x="614" y="2150" width="110" height="40" as="geometry" />
        </mxCell>
        <mxCell id="uqIJKNml7ff7KI8Rcqo2-232" value="&lt;span style=&quot;font-weight: 400;&quot;&gt;img_id&lt;br&gt;&lt;/span&gt;" style="ellipse;whiteSpace=wrap;html=1;fontStyle=1;rounded=0;labelBackgroundColor=none;" parent="1" vertex="1">
          <mxGeometry x="904" y="2050" width="110" height="40" as="geometry" />
        </mxCell>
        <mxCell id="uqIJKNml7ff7KI8Rcqo2-233" value="LOCATION" style="ellipse;whiteSpace=wrap;html=1;rounded=0;labelBackgroundColor=none;" parent="1" vertex="1">
          <mxGeometry x="774" y="2110" width="110" height="40" as="geometry" />
        </mxCell>
        <mxCell id="uqIJKNml7ff7KI8Rcqo2-234" value="" style="ellipse;whiteSpace=wrap;html=1;rounded=0;labelBackgroundColor=none;" parent="1" vertex="1">
          <mxGeometry x="284" y="2030" width="140" height="60" as="geometry" />
        </mxCell>
        <mxCell id="uqIJKNml7ff7KI8Rcqo2-235" value="fullname" style="ellipse;whiteSpace=wrap;html=1;rounded=0;labelBackgroundColor=none;" parent="1" vertex="1">
          <mxGeometry x="299" y="2040" width="110" height="40" as="geometry" />
        </mxCell>
        <mxCell id="uqIJKNml7ff7KI8Rcqo2-236" value="" style="endArrow=none;html=1;rounded=0;entryX=1;entryY=1;entryDx=0;entryDy=0;exitX=0;exitY=0.25;exitDx=0;exitDy=0;labelBackgroundColor=none;fontColor=default;" parent="1" source="uqIJKNml7ff7KI8Rcqo2-226" target="uqIJKNml7ff7KI8Rcqo2-227" edge="1">
          <mxGeometry width="50" height="50" relative="1" as="geometry">
            <mxPoint x="804" y="2260" as="sourcePoint" />
            <mxPoint x="854" y="2210" as="targetPoint" />
          </mxGeometry>
        </mxCell>
        <mxCell id="uqIJKNml7ff7KI8Rcqo2-237" value="" style="endArrow=none;html=1;rounded=0;exitX=1;exitY=0.5;exitDx=0;exitDy=0;labelBackgroundColor=none;fontColor=default;" parent="1" source="uqIJKNml7ff7KI8Rcqo2-228" edge="1">
          <mxGeometry width="50" height="50" relative="1" as="geometry">
            <mxPoint x="814" y="2270" as="sourcePoint" />
            <mxPoint x="654" y="1930" as="targetPoint" />
          </mxGeometry>
        </mxCell>
        <mxCell id="uqIJKNml7ff7KI8Rcqo2-238" value="" style="endArrow=none;html=1;rounded=0;exitX=1;exitY=0.5;exitDx=0;exitDy=0;entryX=0;entryY=0.75;entryDx=0;entryDy=0;labelBackgroundColor=none;fontColor=default;" parent="1" target="uqIJKNml7ff7KI8Rcqo2-226" edge="1">
          <mxGeometry width="50" height="50" relative="1" as="geometry">
            <mxPoint x="324" y="1970" as="sourcePoint" />
            <mxPoint x="874" y="2230" as="targetPoint" />
          </mxGeometry>
        </mxCell>
        <mxCell id="uqIJKNml7ff7KI8Rcqo2-239" value="" style="endArrow=none;html=1;rounded=0;exitX=1;exitY=0;exitDx=0;exitDy=0;entryX=0;entryY=0.75;entryDx=0;entryDy=0;labelBackgroundColor=none;fontColor=default;" parent="1" source="uqIJKNml7ff7KI8Rcqo2-234" target="uqIJKNml7ff7KI8Rcqo2-226" edge="1">
          <mxGeometry width="50" height="50" relative="1" as="geometry">
            <mxPoint x="834" y="2290" as="sourcePoint" />
            <mxPoint x="884" y="2240" as="targetPoint" />
          </mxGeometry>
        </mxCell>
        <mxCell id="uqIJKNml7ff7KI8Rcqo2-240" value="" style="endArrow=none;html=1;rounded=0;exitX=1;exitY=0;exitDx=0;exitDy=0;entryX=0.25;entryY=1;entryDx=0;entryDy=0;labelBackgroundColor=none;fontColor=default;" parent="1" source="uqIJKNml7ff7KI8Rcqo2-230" target="uqIJKNml7ff7KI8Rcqo2-226" edge="1">
          <mxGeometry width="50" height="50" relative="1" as="geometry">
            <mxPoint x="844" y="2300" as="sourcePoint" />
            <mxPoint x="894" y="2250" as="targetPoint" />
          </mxGeometry>
        </mxCell>
        <mxCell id="uqIJKNml7ff7KI8Rcqo2-241" value="" style="endArrow=none;html=1;rounded=0;exitX=0.5;exitY=0;exitDx=0;exitDy=0;entryX=0.5;entryY=1;entryDx=0;entryDy=0;labelBackgroundColor=none;fontColor=default;" parent="1" source="uqIJKNml7ff7KI8Rcqo2-231" target="uqIJKNml7ff7KI8Rcqo2-226" edge="1">
          <mxGeometry width="50" height="50" relative="1" as="geometry">
            <mxPoint x="854" y="2310" as="sourcePoint" />
            <mxPoint x="904" y="2260" as="targetPoint" />
          </mxGeometry>
        </mxCell>
        <mxCell id="uqIJKNml7ff7KI8Rcqo2-242" value="" style="endArrow=none;html=1;rounded=0;exitX=0.5;exitY=0;exitDx=0;exitDy=0;entryX=0.75;entryY=1;entryDx=0;entryDy=0;labelBackgroundColor=none;fontColor=default;" parent="1" source="uqIJKNml7ff7KI8Rcqo2-233" target="uqIJKNml7ff7KI8Rcqo2-226" edge="1">
          <mxGeometry width="50" height="50" relative="1" as="geometry">
            <mxPoint x="864" y="2320" as="sourcePoint" />
            <mxPoint x="914" y="2270" as="targetPoint" />
          </mxGeometry>
        </mxCell>
        <mxCell id="uqIJKNml7ff7KI8Rcqo2-243" value="" style="endArrow=none;html=1;rounded=0;entryX=0;entryY=0.5;entryDx=0;entryDy=0;exitX=1;exitY=0.75;exitDx=0;exitDy=0;labelBackgroundColor=none;fontColor=default;" parent="1" source="uqIJKNml7ff7KI8Rcqo2-226" target="uqIJKNml7ff7KI8Rcqo2-232" edge="1">
          <mxGeometry width="50" height="50" relative="1" as="geometry">
            <mxPoint x="874" y="2330" as="sourcePoint" />
            <mxPoint x="924" y="2280" as="targetPoint" />
          </mxGeometry>
        </mxCell>
        <mxCell id="uqIJKNml7ff7KI8Rcqo2-257" style="edgeStyle=orthogonalEdgeStyle;rounded=0;orthogonalLoop=1;jettySize=auto;html=1;entryX=0;entryY=0.5;entryDx=0;entryDy=0;labelBackgroundColor=none;fontColor=default;" parent="1" source="uqIJKNml7ff7KI8Rcqo2-245" target="d3-_-CHtjb4w5oyOQTUF-3" edge="1">
          <mxGeometry relative="1" as="geometry" />
        </mxCell>
        <mxCell id="uqIJKNml7ff7KI8Rcqo2-245" value="EMPLOYS" style="rhombus;whiteSpace=wrap;html=1;rounded=0;labelBackgroundColor=none;" parent="1" vertex="1">
          <mxGeometry x="1630" y="615" width="200" height="120" as="geometry" />
        </mxCell>
        <mxCell id="uqIJKNml7ff7KI8Rcqo2-250" style="edgeStyle=orthogonalEdgeStyle;rounded=0;orthogonalLoop=1;jettySize=auto;html=1;entryX=0.5;entryY=1;entryDx=0;entryDy=0;exitX=0.5;exitY=0;exitDx=0;exitDy=0;labelBackgroundColor=none;fontColor=default;" parent="1" source="uqIJKNml7ff7KI8Rcqo2-253" target="uqIJKNml7ff7KI8Rcqo2-176" edge="1">
          <mxGeometry relative="1" as="geometry">
            <mxPoint x="690" y="1260" as="sourcePoint" />
          </mxGeometry>
        </mxCell>
        <mxCell id="uqIJKNml7ff7KI8Rcqo2-260" style="edgeStyle=orthogonalEdgeStyle;rounded=0;orthogonalLoop=1;jettySize=auto;html=1;entryX=0.5;entryY=0;entryDx=0;entryDy=0;labelBackgroundColor=none;fontColor=default;" parent="1" source="uqIJKNml7ff7KI8Rcqo2-247" target="uqIJKNml7ff7KI8Rcqo2-103" edge="1">
          <mxGeometry relative="1" as="geometry" />
        </mxCell>
        <mxCell id="uqIJKNml7ff7KI8Rcqo2-247" value="STORES" style="rhombus;whiteSpace=wrap;html=1;rounded=0;labelBackgroundColor=none;" parent="1" vertex="1">
          <mxGeometry x="1630" y="1270" width="200" height="120" as="geometry" />
        </mxCell>
        <mxCell id="uqIJKNml7ff7KI8Rcqo2-259" style="edgeStyle=orthogonalEdgeStyle;rounded=0;orthogonalLoop=1;jettySize=auto;html=1;entryX=0.5;entryY=0;entryDx=0;entryDy=0;labelBackgroundColor=none;fontColor=default;" parent="1" source="uqIJKNml7ff7KI8Rcqo2-248" target="uqIJKNml7ff7KI8Rcqo2-78" edge="1">
          <mxGeometry relative="1" as="geometry" />
        </mxCell>
        <mxCell id="uqIJKNml7ff7KI8Rcqo2-248" value="SENDS" style="rhombus;whiteSpace=wrap;html=1;rounded=0;labelBackgroundColor=none;" parent="1" vertex="1">
          <mxGeometry x="2490" y="1275" width="200" height="120" as="geometry" />
        </mxCell>
        <mxCell id="uqIJKNml7ff7KI8Rcqo2-255" style="edgeStyle=orthogonalEdgeStyle;rounded=0;orthogonalLoop=1;jettySize=auto;html=1;entryX=0.5;entryY=1;entryDx=0;entryDy=0;labelBackgroundColor=none;fontColor=default;" parent="1" source="uqIJKNml7ff7KI8Rcqo2-252" target="uqIJKNml7ff7KI8Rcqo2-253" edge="1">
          <mxGeometry relative="1" as="geometry" />
        </mxCell>
        <mxCell id="uqIJKNml7ff7KI8Rcqo2-252" value="MEDIATOR" style="shape=ext;margin=3;double=1;whiteSpace=wrap;html=1;align=center;rounded=0;labelBackgroundColor=none;" parent="1" vertex="1">
          <mxGeometry x="640" y="1920" width="100" height="40" as="geometry" />
        </mxCell>
        <mxCell id="uqIJKNml7ff7KI8Rcqo2-253" value="MANAGES" style="shape=rhombus;double=1;perimeter=rhombusPerimeter;whiteSpace=wrap;html=1;align=center;rounded=0;labelBackgroundColor=none;" parent="1" vertex="1">
          <mxGeometry x="585" y="1270" width="210" height="130" as="geometry" />
        </mxCell>
        <mxCell id="uqIJKNml7ff7KI8Rcqo2-262" value="" style="endArrow=classic;html=1;rounded=0;entryX=0;entryY=0.5;entryDx=0;entryDy=0;exitX=1;exitY=0;exitDx=0;exitDy=0;labelBackgroundColor=none;fontColor=default;" parent="1" source="uqIJKNml7ff7KI8Rcqo2-252" target="uqIJKNml7ff7KI8Rcqo2-247" edge="1">
          <mxGeometry width="50" height="50" relative="1" as="geometry">
            <mxPoint x="1220" y="1560" as="sourcePoint" />
            <mxPoint x="1270" y="1510" as="targetPoint" />
          </mxGeometry>
        </mxCell>
        <mxCell id="uqIJKNml7ff7KI8Rcqo2-263" value="" style="endArrow=classic;html=1;rounded=0;exitX=1;exitY=1;exitDx=0;exitDy=0;entryX=0;entryY=0.5;entryDx=0;entryDy=0;labelBackgroundColor=none;fontColor=default;" parent="1" source="uqIJKNml7ff7KI8Rcqo2-176" target="uqIJKNml7ff7KI8Rcqo2-247" edge="1">
          <mxGeometry width="50" height="50" relative="1" as="geometry">
            <mxPoint x="1220" y="1560" as="sourcePoint" />
            <mxPoint x="1270" y="1510" as="targetPoint" />
          </mxGeometry>
        </mxCell>
        <mxCell id="uqIJKNml7ff7KI8Rcqo2-264" value="" style="endArrow=classic;html=1;rounded=0;exitX=0;exitY=1;exitDx=0;exitDy=0;entryX=1;entryY=0.5;entryDx=0;entryDy=0;labelBackgroundColor=none;fontColor=default;" parent="1" source="d3-_-CHtjb4w5oyOQTUF-3" target="uqIJKNml7ff7KI8Rcqo2-247" edge="1">
          <mxGeometry width="50" height="50" relative="1" as="geometry">
            <mxPoint x="1220" y="1560" as="sourcePoint" />
            <mxPoint x="1270" y="1510" as="targetPoint" />
          </mxGeometry>
        </mxCell>
      </root>
    </mxGraphModel>
  </diagram>
</mxfile>
